# xmcd
#
# Track frame offsets:
#	150
#	18588
#	34574
#	50258
#	70526
#	83031
#	100917
#	118943
#	136145
#	152877
#	167276
#	183041
#	200009
#	215913
#	231752
#	246705
#	264562
#	277278
#	292248
#	307514
#
# Disc length: 4308 seconds
#
# Revision: 0
# Processed by: cddbd v1.5.2PL0 Copyright (c) Steve Scherf et al.
# Submitted via: audiograbber 1.83.01
#
DISCID=2210d214
DTITLE=Various Artist - Summer Jams Top 100 disc 3/5
DYEAR=2006
DGENRE=Top40
TTITLE0=Akcent - Kylie
TTITLE1=Mad'house - Holiday
TTITLE2=Milk and Sugar - Lizzy Pattinson
TTITLE3=Beenie Man - Dancehall Queen
TTITLE4=LMC vs. U2 - Take Me To The Clouds Above
TTITLE5=DJ Sammy - Boys Of Summer
TTITLE6=The Underdog Project - Miami
TTITLE7=Catalana - The Summer Of Love
TTITLE8=SunSetGang - Hot Hot Hot
TTITLE9=Room 5 - Make Luv
TTITLE10=Lauren - O-Ayo
TTITLE11=Ann Lee - 2 Times
TTITLE12=Glamour - The Ketchup Song
TTITLE13=Dance Nation - Sunshine
TTITLE14=Brio From Rio - Just For Me
TTITLE15=Public DJ - My Night
TTITLE16=Speedy - Sientelo
TTITLE17=Ultrabeat - Pretty Green Eyes
TTITLE18=Rytmo Ritmo - Hello Mallorca (Welcome To Ibiza)
TTITLE19=Gala - Freed From Desire
EXTD=
EXTT0=
EXTT1=
EXTT2=
EXTT3=
EXTT4=
EXTT5=
EXTT6=
EXTT7=
EXTT8=
EXTT9=
EXTT10=
EXTT11=
EXTT12=
EXTT13=
EXTT14=
EXTT15=
EXTT16=
EXTT17=
EXTT18=
EXTT19=
PLAYORDER=
